{"title":"WWE Friday Night SmackDown 22 april 11.x264-spyke1998","uid":6338476,"size":544224712,"categoryP":"video","categoryS":"tv_shows","magnet":"?xt=urn:btih:08193fbcde2c99bbac30795a63db9d3730ab5e9a&amp;dn=WWE+Friday+Night+SmackDown+22+april+11.x264-spyke1998&amp;tr=udp%3A%2F%2Ftracker.openbittorrent.com%3A80&amp;tr=udp%3A%2F%2Fopen.demonii.com%3A1337&amp;tr=udp%3A%2F%2Ftracker.coppersurfer.tk%3A6969&amp;tr=udp%3A%2F%2Fexodus.desync.com%3A6969","seeders":0,"leechers":1,"uploader":"spyke1998","files":4,"time":1303557861,"description":"General\nComplete name                    : D:\\Iztegleni\\WWE SmackDown 22 april 2011.x264-spyke1998\\2.avi\nFormat                           : AVI\nFormat/Info                      : Audio Video Interleave\nFile size                        : 131 MiB\nDuration                         : 20mn 2s\nOverall bit rate                 : 916 Kbps\nWriting application              : MEncoder SVN-r30881(20100311-gcc4.3.3)\nWriting library                  : MPlayer\n\nVideo\nFormat                           : avc1\nCodec ID                         : avc1\nDuration                         : 20mn 2s\nBit rate                         : 775 Kbps\nWidth                            : 320 pixels\nHeight                           : 180 pixels\nDisplay aspect ratio             : 16:9\nFrame rate                       : 23.976 fps\nBits/(Pixel*Frame)               : 0.561\nStream size                      : 111 MiB (85%)\n\nAudio\nID                               : 1\nFormat                           : MPEG Audio\nFormat version                   : Version 1\nFormat profile                   : Layer 3\nFormat_Settings_Mode             : Joint stereo\nFormat_Settings_ModeExtension    : MS Stereo\nCodec ID                         : 55\nCodec ID/Hint                    : MP3\nDuration                         : 20mn 0s\nBit rate mode                    : Constant\nBit rate                         : 128 Kbps\nChannel(s)                       : 2 channels\nSampling rate                    : 48.0 KHz\nStream size                      : 18.3 MiB (14%)\nAlignment                        : Aligned on interleaves\nInterleave, duration             : 24 ms (0.58 video frame)\nInterleave, preload duration     : 504 ms\n\n","torrent":{"xt":"urn:btih:08193fbcde2c99bbac30795a63db9d3730ab5e9a","amp;dn":"WWE+Friday+Night+SmackDown+22+april+11.x264-spyke1998","amp;tr":["udp%3A%2F%2Ftracker.openbittorrent.com%3A80","udp%3A%2F%2Fopen.demonii.com%3A1337","udp%3A%2F%2Ftracker.coppersurfer.tk%3A6969","udp%3A%2F%2Fexodus.desync.com%3A6969"],"infoHash":"08193fbcde2c99bbac30795a63db9d3730ab5e9a","infoHashBuffer":{"type":"Buffer","data":[8,25,63,188,222,44,153,187,172,48,121,90,99,219,157,55,48,171,94,154]},"announce":[],"urlList":[]}}